<?xml version="1.0" encoding="utf-8"?>
<!-- Generator: Adobe Illustrator 16.0.4, SVG Export Plug-In . SVG Version: 6.00 Build 0)  -->
<!DOCTYPE svg PUBLIC "-//W3C//DTD SVG 1.1//EN" "http://www.w3.org/Graphics/SVG/1.1/DTD/svg11.dtd">
<svg version="1.1" xmlns="http://www.w3.org/2000/svg" xmlns:xlink="http://www.w3.org/1999/xlink" x="0px" y="0px"
	 width="167.41px" height="166.354px" viewBox="0 0 167.41 166.354" enable-background="new 0 0 167.41 166.354"
	 xml:space="preserve">
<g id="original_copy_2">
</g>
<g id="original_copy_4">
</g>
<g id="original_copy_3">
</g>
<g id="original_copy_5">
	<g>
		<path fill="#CC3333" d="M97.34,159.049c-1.027,0.068-2.046,0.12-3.074,0.139s-2.058,0.015-3.06,0.014
			c-2.003-0.001-3.891,0.032-5.665,0.098c-1.995-0.035-3.988-0.075-5.974-0.192c-1.985-0.118-3.962-0.313-5.925-0.66
			c-7.15-1.264-2.434-4.604-8.596-8.359c-11.936-7.275-21.277-18.592-28.038-30.68c-0.983-1.759-1.902-3.574-2.748-5.438
			c-0.846-1.862-1.618-3.771-2.312-5.716c-0.31-1.848-0.734-3.693-1.228-5.541c-0.493-1.849-1.054-3.699-1.636-5.558
			c-1.247-4.367-2.887-8.74-3.696-13.358c-0.271-1.54-0.448-3.106-0.488-4.708c0.189-0.922,0.189-2.922,0.189-3.922c0,1,0,1,0,2
			c0-5,1-10,3.895-14.104c0.641-1.082,1.316-2.156,1.993-3.235c0.678-1.079,1.357-2.163,2.013-3.256
			c1.51-1.44,3.089-2.667,4.726-3.711c1.547-1.086,3.15-1.975,4.799-2.691c1.822-1,3.65-1.719,5.484-2.212
			c1.837-0.49,3.668-0.741,5.462-0.771c11.629-0.02,21.629,5.98,33.629,4.98c-10-11-27-18-43.199-18.174
			c-1.69,0.014-3.301,0.074-4.801,0.174c-6,1-11,3-15.75,5.792c-1.07,0.682-2.107,1.404-3.112,2.163
			c-1.004,0.759-1.976,1.555-2.914,2.384c-1.252,1.106-2.445,2.273-3.582,3.492c-2.328,2.634-4.391,5.46-6.195,8.443
			c-0.902,1.491-1.74,3.022-2.51,4.601c-2.081,4.837-1.718,6.843-2.854,11.933c-0.38,1.696-0.703,3.402-0.969,5.114
			c-0.411,1.808-0.712,3.615-0.909,5.419C0.097,85.315,0.001,87.122,0,88.943c1.09,18.224,7.09,36.224,19.752,49.704
			c1.108,1.347,2.255,2.664,3.44,3.944c4.739,5.121,10.091,9.655,16.017,13.267c6.285,3.83,13.727,6.906,20.902,8.551
			c8.146,1.865,16.522,0.486,24.708,1.775c1.817,0.287,3.7,0.205,5.546-0.204c0.682-0.203,1.442-0.355,2.221-0.528
			c0.779-0.173,1.576-0.365,2.325-0.654c1.179-0.631,2.179-1.631,3.266-3.635C98.858,160.014,99.002,158.987,97.34,159.049z"/>
	</g>
	<g>
		<path fill="#CC3333" d="M144.757,37.713c-2.567-1.546-5.405-2.546-7.839-3.462c-1.312-0.63-2.641-1.24-4.019-1.736
			c-1.378-0.496-2.806-0.878-4.314-1.055c-1.477-0.349-2.983-0.616-4.521-0.783c-1.537-0.166-3.104-0.229-4.701-0.169
			c-1.877,0.083-3.683,0.342-5.428,0.747c-2.967,0.912-5.805,2.912-8.628,3.318c-1.224,0.57-2.471,1.157-3.69,1.792
			c-2.44,1.271-4.771,2.741-6.596,4.679c-1.475,1.057-2.94,2.131-4.41,3.191c-2.939,2.12-5.896,4.182-8.971,5.932h0.946
			c-0.946-1-0.946-1-1.893-2c1.703,0.2,3.435,0.31,5.186,0.359c1.752,0.051,3.524,0.041,5.311-0.012
			c12.022-2.775,27.165-2.149,38.138,4.667c0.998,0.62,1.962,1.29,2.89,2.012c8.872,6.973,12.872,17.973,13.742,27.787
			c0.098,1.088,0.149,2.188,0.151,3.299c0.076,1.008,0.138,2.02,0.188,3.035c0.051,1.015,0.091,2.032,0.124,3.053
			c0.066,0.979,0.106,1.972,0.12,2.972c0.089,6.752-1.035,13.889-3.371,20.306c-0.39,1.069-0.812,2.119-1.257,3.15
			c-3.826,9.371-8.826,17.371-16.065,24.36c-0.729,0.696-1.472,1.378-2.232,2.041c-3.8,3.315-8.07,6.161-12.612,8.354
			c-1.025,0.623-2.074,1.244-3.151,1.855c-1.037,0.468-2.084,0.903-3.142,1.295c-4.231,1.566-8.638,2.434-13.313,1.746
			c-1.007-0.212-1.996-0.493-2.961-0.85c-1.162-0.408-2.303-0.905-3.425-1.445c-2.56-1.231-6.514,0.143-8.792,1.479
			c-1.54,0.903-3.91,3.179-1.301,4.436c3.749,1.804,7.577,3.007,11.427,3.673c1.925,0.334,3.858,0.513,5.797,0.507
			c1.243-0.01,2.472-0.034,3.689-0.077c4.689-0.418,9.335-1.183,13.892-2.274c0.911-0.219,1.819-0.45,2.723-0.694
			c9.642-3.033,18.642-9.033,27.367-15.433c0.808-0.729,1.586-1.495,2.346-2.281c9.929-7.319,16.929-17.319,20.6-29.686
			c0.361-1.012,0.698-2.03,1.007-3.059c1.235-4.112,2.024-8.381,2.376-12.783c0.115-0.962,0.193-1.95,0.229-2.973
			c0.197-1.122,0.364-2.246,0.504-3.369c0.981-7.86,0.604-15.669-1.076-22.975c-0.331-1.662-0.717-3.32-1.159-4.975
			c-0.441-1.655-0.939-3.305-1.492-4.95c-0.623-1.767-1.343-3.492-2.159-5.162c-3.265-6.679-8.069-12.468-14.369-16.548
			C146.003,38.559,145.381,38.124,144.757,37.713z"/>
	</g>
	<path fill="#CC3333" d="M74.48,150.753c-13.293-7.125-14.564-32.088,0-60.5c0,0-27,43.5-37.5,11s-14.4,4.219-14.4,4.219
		l46.281,55.295C68.861,160.767,80.988,154.239,74.48,150.753z"/>
	<g id="white_dot_7_">
		<path fill="#FFFFFF" d="M44.867,144.482c2.911,1.005,6.302-1.456,7.432-2.688c3.391-8.615-7.91-23.387-16.951-19.693
			C25.178,125.792,33.088,144.257,44.867,144.482L44.867,144.482z"/>
	</g>
	<polyline id="leaves_5_" fill="#079948" points="83.687,52.952 109.035,46.588 109.035,22.544 134.276,14.389 104.537,16.33 
		99.714,36.939 81.074,43.707 65.93,37.3 59.328,33.417 80.686,27.45 73.67,6.621 47.334,0 66.706,11.14 71.939,20.99 
		46.901,33.864 64.377,48.976 	"/>
</g>
<g id="original_copy_6">
</g>
<g id="original_copy">
</g>
<g id="original">
</g>
<g id="logo">
	<g id="red">
	</g>
	<g id="Layer_10">
	</g>
	<g id="Layer_3" display="none">
	</g>
</g>
<g id="dot">
</g>
</svg>
